#!OML:ASF H:\Punching\Project 1\Capture day 1\Session 1\female.ASF
:FULLY-SPECIFIED
:DEGREES
1595
root 0.688267 14.9529 11.7223 27.4317 -16.3536 -6.47453
lowerback 5.70284 -3.54642 -0.928623
upperback -2.86533 -4.70704 2.27335
thorax -5.91144 -2.24736 3.38656
lowerneck -8.07243 11.5292 18.2289
upperneck 10.7976 15.0765 -13.8774
head 7.08781 7.22843 -5.85817
rclavicle 2.18663e-014 1.43125e-014
rhumerus 7.55757 40.3925 -73.4928
rradius 131.111
rwrist -22.4701
rhand -17.2049 2.0674
rfingers 7.12502
rthumb 9.03764 -27.719
lclavicle 2.18663e-014 1.43125e-014
lhumerus 23.5282 -49.4029 46.9578
lradius 59.3284
lwrist 5.89392
lhand -20.05 9.22677
lfingers 7.12502
lthumb 6.29156 39.1133
rfemur -4.95315 4.6942 8.97252
rtibia -9.54166e-015
rfoot -13.3072 -16.0023
rtoes -13.8976
lfemur -61.5089 6.17753 -13.7869
ltibia 50.7249
lfoot -12.1508 6.92276
ltoes 4.7067
1596
root 0.670108 14.9604 11.715 27.2702 -16.271 -6.49053
lowerback 5.74732 -3.52032 -0.991908
upperback -2.9115 -4.6757 2.30361
thorax -5.98004 -2.22705 3.45616
lowerneck -8.04127 11.4917 18.1944
upperneck 10.8587 15.0273 -13.7923
head 7.08364 7.20989 -5.83375
rclavicle 2.0276e-014 -3.02153e-014
rhumerus 8.0082 40.3482 -73.1869
rradius 131.084
rwrist -22.4803
rhand -17.2654 2.07038
rfingers 7.12502
rthumb 8.97927 -27.7185
lclavicle 2.0276e-014 -3.02153e-014
lhumerus 23.4493 -49.372 47.332
lradius 59.5963
lwrist 6.08714
lhand -20.0083 9.06825
lfingers 7.12502
lthumb 6.33183 38.9536
rfemur -4.76772 4.65223 9.07103
rtibia -6.36111e-015
rfoot -13.2391 -15.7842
rtoes -13.92
lfemur -61.2527 6.10231 -13.6148
ltibia 50.5693
lfoot -12.0616 6.94243
ltoes 4.61903
1597
root 0.650389 14.969 11.7066 27.0965 -16.2006 -6.50307
lowerback 5.75654 -3.48723 -1.02926
upperback -2.93785 -4.63433 2.3057
thorax -6.01263 -2.20419 3.47714
lowerneck -8.06535 11.4551 18.1967
upperneck 10.9328 14.9622 -13.6813
head 7.0913 7.18444 -5.80571
rclavicle -2.46493e-014 0
rhumerus 8.44856 40.2497 -72.9151
rradius 131.083
rwrist -22.5495
rhand -17.3524 2.10065
rfingers 7.12502
rthumb 8.89525 -27.6919
lclavicle -2.46493e-014 0
lhumerus 23.4668 -49.3881 47.5409
lradius 59.9201
lwrist 6.17333
lhand -19.9419 8.92627
lfingers 7.12502
lthumb 6.39595 38.8097
rfemur -4.58026 4.62145 9.16686
rtibia -2.22639e-014
rfoot -13.1648 -15.5671
rtoes -13.8874
lfemur -60.968 6.02778 -13.438
ltibia 50.3885
lfoot -11.9635 6.97442
ltoes 4.53359
1598
root 0.629031 14.9783 11.6969 26.9154 -16.1403 -6.51125
lowerback 5.73284 -3.45322 -1.0493
upperback -2.95491 -4.591 2.29461
thorax -6.01912 -2.18194 3.47148
lowerneck -8.11379 11.4179 18.2061
upperneck 11.0091 14.888 -13.5508
head 7.10136 7.15522 -5.77233
rclavicle -3.85642e-014 6.20208e-014
rhumerus 8.86907 40.1215 -72.6681
rradius 131.107
rwrist -22.6494
rhand -17.442 2.13951
rfingers 7.12502
rthumb 8.80884 -27.6567
lclavicle -3.85642e-014 6.20208e-014
lhumerus 23.5211 -49.4451 47.639
lradius 60.3282
lwrist 6.15405
lhand -19.8667 8.82112
lfingers 7.12502
lthumb 6.4685 38.7023
rfemur -4.39426 4.59866 9.2603
rtibia -1.90833e-014
rfoot -13.08 -15.3483
rtoes -13.837
lfemur -60.6632 5.95327 -13.256
ltibia 50.1848
lfoot -11.855 7.01562
ltoes 4.4456
1599
root 0.606113 14.9883 11.6857 26.7263 -16.0884 -6.50967
lowerback 5.68378 -3.42437 -1.06195
upperback -2.96644 -4.5544 2.27508
thorax -6.00609 -2.16396 3.45136
lowerneck -8.17704 11.3822 18.222
upperneck 11.0846 14.8111 -13.4129
head 7.11332 7.12495 -5.73705
rclavicle -2.22639e-014 -1.90833e-014
rhumerus 9.26593 39.9777 -72.4487
rradius 131.154
rwrist -22.7259
rhand -17.5176 2.16386
rfingers 7.12502
rthumb 8.73592 -27.6354
lclavicle -2.22639e-014 -1.90833e-014
lhumerus 23.5747 -49.5222 47.662
lradius 60.8343
lwrist 6.06816
lhand -19.7572 8.74016
lfingers 7.12502
lthumb 6.5742 38.6181
rfemur -4.20925 4.57975 9.34569
rtibia -1.59028e-014
rfoot -12.995 -15.1233
rtoes -13.7619
lfemur -60.3404 5.87177 -13.0716
ltibia 49.9587
lfoot -11.7343 7.06844
ltoes 4.34701
1600
root 0.581503 14.9987 11.6726 26.538 -16.0347 -6.5002
lowerback 5.61288 -3.40629 -1.06969
upperback -2.98345 -4.5317 2.25825
thorax -5.98562 -2.15319 3.43138
lowerneck -8.23224 11.3458 18.2319
upperneck 11.1522 14.7346 -13.2756
head 7.12114 7.09504 -5.70142
rclavicle -7.27552e-014 -4.77083e-015
rhumerus 9.62374 39.8342 -72.2566
rradius 131.216
rwrist -22.7586
rhand -17.582 2.20315
rfingers 7.12502
rthumb 8.67373 -27.5987
lclavicle -7.27552e-014 -4.77083e-015
lhumerus 23.5821 -49.6095 47.6713
lradius 61.4276
lwrist 5.94966
lhand -19.6331 8.68945
lfingers 7.12502
lthumb 6.69406 38.5636
rfemur -4.03172 4.55531 9.42971
rtibia 2.54444e-014
rfoot -12.9135 -14.8879
rtoes -13.6706
lfemur -60.0152 5.78062 -12.8798
ltibia 49.7127
lfoot -11.595 7.12744
ltoes 4.22729
1601
root 0.555058 15.0094 11.6572 26.3504 -15.9825 -6.47738
lowerback 5.52763 -3.39382 -1.07836
upperback -3.01271 -4.51666 2.24031
thorax -5.9694 -2.14607 3.41112
lowerneck -8.27468 11.3033 18.24
upperneck 11.2165 14.6524 -13.1417
head 7.12505 7.06274 -5.66819
rclavicle -7.55382e-015 -2.38542e-015
rhumerus 9.91118 39.6868 -72.1059
rradius 131.292
rwrist -22.7204
rhand -17.6304 2.2294
rfingers 7.12502
rthumb 8.62701 -27.5743
lclavicle -7.55382e-015 -2.38542e-015
lhumerus 23.5355 -49.708 47.7005
lradius 62.0825
lwrist 5.85015
lhand -19.5015 8.67257
lfingers 7.12502
lthumb 6.82105 38.5427
rfemur -3.86439 4.52556 9.50623
rtibia -9.54166e-015
rfoot -12.836 -14.6393
rtoes -13.5925
lfemur -59.6905 5.68133 -12.6869
ltibia 49.4466
lfoot -11.436 7.1916
ltoes 4.08697
1602
root 0.526878 15.0201 11.6397 26.1606 -15.9299 -6.44045
lowerback 5.43405 -3.38824 -1.08973
upperback -3.05712 -4.51093 2.22534
thorax -5.96338 -2.14313 3.39657
lowerneck -8.29768 11.2538 18.2374
upperneck 11.2794 14.5659 -13.0128
head 7.12419 7.02852 -5.63662
rclavicle 9.93923e-015 3.18055e-015
rhumerus 10.1254 39.5447 -71.9903
rradius 131.381
rwrist -22.6024
rhand -17.6698 2.19316
rfingers 7.12502
rthumb 8.58898 -27.6121
lclavicle 9.93923e-015 3.18055e-015
lhumerus 23.4126 -49.8094 47.789
lradius 62.7721
lwrist 5.80117
lhand -19.3861 8.71757
lfingers 7.12502
lthumb 6.93244 38.5841
rfemur -3.70302 4.48918 9.57491
rtibia -3.18055e-015
rfoot -12.7641 -14.3809
rtoes -13.5658
lfemur -59.3647 5.57152 -12.4937
ltibia 49.1632
lfoot -11.2579 7.26099
ltoes 3.91561
1603
root 0.496797 15.0308 11.6199 25.9657 -15.8864 -6.38297
lowerback 5.3381 -3.38744 -1.11746
upperback -3.11824 -4.51292 2.21042
thorax -5.97192 -2.14297 3.39264
lowerneck -8.30038 11.1986 18.2303
upperneck 11.3427 14.4768 -12.8914
head 7.11999 6.99329 -5.60827
rclavicle -1.36764e-013 2.54444e-014
rhumerus 10.2606 39.4077 -71.9139
rradius 131.478
rwrist -22.4343
rhand -17.6921 2.08874
rfingers 7.12502
rthumb 8.56747 -27.7174
lclavicle -1.36764e-013 2.54444e-014
lhumerus 23.197 -49.9014 47.9611
lradius 63.4683
lwrist 5.83232
lhand -19.3026 8.81608
lfingers 7.12502
lthumb 7.0131 38.6799
rfemur -3.55085 4.45197 9.62618
rtibia 1.27222e-014
rfoot -12.6959 -14.1184
rtoes -13.624
lfemur -59.0348 5.45331 -12.3067
ltibia 48.8618
lfoot -11.0647 7.33841
ltoes 3.72669
1604
root 0.465052 15.0413 11.5983 25.7573 -15.8571 -6.30971
lowerback 5.2424 -3.38488 -1.15049
upperback -3.19133 -4.51315 2.19169
thorax -5.99324 -2.14146 3.38816
lowerneck -8.28663 11.1345 18.2151
upperneck 11.4117 14.3807 -12.7743
head 7.11354 6.95479 -5.58197
rclavicle 3.02153e-014 -8.74653e-015
rhumerus 10.3125 39.2668 -71.8731
rradius 131.576
rwrist -22.2534
rhand -17.6886 1.90807
rfingers 7.12502
rthumb 8.57086 -27.898
lclavicle 3.02153e-014 -8.74653e-015
lhumerus 22.8898 -49.9867 48.2235
lradius 64.1608
lwrist 5.9356
lhand -19.2789 8.99899
lfingers 7.12502
lthumb 7.0359 38.8621
rfemur -3.3969 4.42246 9.66252
rtibia 1.90833e-014
rfoot -12.6531 -13.8572
rtoes -13.7532
lfemur -58.6875 5.3314 -12.1251
ltibia 48.5436
lfoot -10.8585 7.42546
ltoes 3.49791
1605
root 0.431544 15.0516 11.5748 25.5248 -15.8492 -6.21489
lowerback 5.15924 -3.38263 -1.20245
upperback -3.27456 -4.51552 2.16885
thorax -6.03123 -2.13987 3.39161
lowerneck -8.25566 11.0669 18.1981
upperneck 11.4911 14.2855 -12.6671
head 7.10842 6.91677 -5.5593
rclavicle -4.21423e-014 2.14687e-014
rhumerus 10.2889 39.1331 -71.8651
rradius 131.669
rwrist -22.0961
rhand -17.6567 1.66537
rfingers 7.12502
rthumb 8.60166 -28.1394
lclavicle -4.21423e-014 2.14687e-014
lhumerus 22.4508 -50.0418 48.6024
lradius 64.8516
lwrist 6.09211
lhand -19.3013 9.2378
lfingers 7.12502
lthumb 7.01426 39.1016
rfemur -3.23403 4.4065 9.67714
rtibia 3.49861e-014
rfoot -12.64 -13.6056
rtoes -13.9744
lfemur -58.3099 5.20522 -11.9548
ltibia 48.2077
lfoot -10.6414 7.52574
ltoes 3.23306
